<?xml version="1.0" encoding="UTF-8" standalone="no"?>
<svg
   xmlns:dc="http://purl.org/dc/elements/1.1/"
   xmlns:cc="http://creativecommons.org/ns#"
   xmlns:rdf="http://www.w3.org/1999/02/22-rdf-syntax-ns#"
   xmlns:svg="http://www.w3.org/2000/svg"
   xmlns="http://www.w3.org/2000/svg"
   xmlns:sodipodi="http://sodipodi.sourceforge.net/DTD/sodipodi-0.dtd"
   xmlns:inkscape="http://www.inkscape.org/namespaces/inkscape"
   width="195.39531mm"
   height="210.01898mm"
   viewBox="0 0 195.39531 210.01898"
   version="1.1"
   id="svg8"
   inkscape:version="1.0 (4035a4fb49, 2020-05-01)"
   sodipodi:docname="Profile_blank.svg">
  <defs
     id="defs2" />
  <sodipodi:namedview
     fit-margin-bottom="0"
     fit-margin-right="0"
     fit-margin-left="0"
     fit-margin-top="0"
     id="base"
     pagecolor="#ffffff"
     bordercolor="#666666"
     borderopacity="1.0"
     inkscape:pageopacity="0.0"
     inkscape:pageshadow="2"
     inkscape:zoom="0.49497475"
     inkscape:cx="49.289258"
     inkscape:cy="225.40081"
     inkscape:document-units="mm"
     inkscape:current-layer="layer1"
     inkscape:document-rotation="0"
     showgrid="false"
     inkscape:window-width="1920"
     inkscape:window-height="1017"
     inkscape:window-x="1912"
     inkscape:window-y="-8"
     inkscape:window-maximized="1"
     inkscape:snap-nodes="false"
     inkscape:snap-others="false"
     inkscape:snap-grids="false"
     inkscape:snap-to-guides="false"
     inkscape:snap-global="false" />
  <metadata
     id="metadata5">
    <rdf:RDF>
      <cc:Work
         rdf:about="">
        <dc:format>image/svg+xml</dc:format>
        <dc:type
           rdf:resource="http://purl.org/dc/dcmitype/StillImage" />
        <dc:title></dc:title>
      </cc:Work>
    </rdf:RDF>
  </metadata>
  <g
     transform="translate(-10.552871,-76.093689)"
     inkscape:label="Ebene 1"
     inkscape:groupmode="layer"
     id="layer1">
    <ellipse
       style="fill:#4d4d4d;fill-rule:evenodd;stroke-width:0.317205"
       id="path10"
       cx="109.5152"
       cy="132.61687"
       rx="60.183781"
       ry="56.523178" />
    <path
       style="fill:#333333;fill-opacity:0;stroke:#000000;stroke-width:0.264583;stroke-opacity:0"
       id="path21"
       d="m 97.525484,272.80213 c 8.293776,-0.16872 16.589106,-0.2038 24.884346,-0.20751 8.98865,0.13872 17.98364,-0.18835 26.89474,-1.39927 4.23687,-0.72824 8.50676,-1.20301 12.78073,-1.64465 5.2264,-0.56888 10.27844,-2.08092 15.16521,-3.96764 4.2378,-1.84529 8.17427,-4.14755 12.10224,-6.62555 0.44367,-0.27989 0.79761,-0.69003 1.12749,-1.0979 0.82372,-1.01844 0.93384,-1.60921 1.39135,-2.81998 0.94027,-4.42395 0.83759,-8.98837 0.8518,-13.48834 -0.13684,-3.97863 0.19715,-7.98947 -0.1157,-11.96294 -0.0661,-0.83973 -0.20518,-1.67211 -0.30778,-2.50817 -0.5272,-1.89884 -0.84852,-3.5118 -1.87008,-5.24644 -3.50174,-5.94611 -10.25046,-10.5298 -15.70282,-14.4389 -5.4692,-3.76046 -11.16659,-7.19386 -17.09799,-10.17608 -2.86581,-1.44089 -5.40966,-2.66059 -8.51259,-3.47033 -1.26371,-0.32978 -2.5718,-0.45679 -3.8577,-0.68518 -1.24792,-5.3e-4 -2.4991,-0.0914 -3.74376,-0.001 -8.27529,0.59879 -14.57714,4.32769 -21.39599,9.05411 -1.39352,0.96592 -2.47021,2.32329 -3.70532,3.48493 -3.07264,3.80092 -3.76632,4.36544 -6.22772,8.55565 -1.76204,2.99963 -2.93816,5.20945 -3.39434,8.6993 -0.49561,3.79154 0.17731,5.99101 0.81295,9.71984 1.92666,6.84464 5.47368,13.03878 9.74916,18.67562 2.12357,2.79974 3.49695,4.25011 5.79297,6.83301 0.90925,0.89279 1.8185,1.78559 2.72776,2.67838 0,0 6.38214,-3.92697 6.38214,-3.92697 v 0 c -0.91691,-0.86812 -1.83383,-1.73625 -2.75074,-2.60437 -2.31734,-2.52061 -3.7223,-3.94807 -5.85157,-6.70036 -4.26734,-5.51594 -7.75973,-11.61409 -9.57168,-18.38837 -0.57167,-3.71577 -1.18026,-5.7199 -0.61488,-9.46782 0.68051,-4.51099 3.56711,-9.15687 6.25543,-12.73374 1.07599,-1.43163 2.30725,-2.73969 3.46087,-4.10954 1.27367,-1.13455 2.99925,-1.90895 3.821,-3.40367 0.45611,-0.82965 -3.50674,1.40281 -2.59031,1.1651 1.24177,-0.3221 2.36249,-1.0068 3.57666,-1.42095 3.60214,-1.22868 7.33037,-1.92098 11.14557,-1.80933 1.27932,0.18661 2.57807,0.26971 3.83796,0.55983 3.08008,0.70926 5.77654,1.89889 8.62799,3.24915 5.99583,2.8392 11.74149,6.18792 17.17538,9.99425 5.29753,3.9829 11.68396,8.44572 15.00277,14.39819 0.9769,1.75212 1.22797,3.18164 1.72235,5.07884 0.0899,0.81809 0.21294,1.63321 0.26971,2.45426 0.27429,3.96695 -0.0338,7.96468 0.1086,11.93556 -0.0326,4.42823 0.0987,8.96751 -1.09884,13.2686 -0.55076,1.16614 -0.62345,1.57433 -1.53,2.50781 -0.34932,0.35969 -1.60866,1.1796 -1.15774,0.96035 1.78874,-0.86973 3.48642,-1.91664 5.20028,-2.92594 0.59785,-0.35207 -1.22961,0.64325 -1.85036,0.95315 -0.72227,0.36059 -1.45228,0.70545 -2.17841,1.05818 -4.79936,1.95565 -9.78167,3.48813 -14.95079,4.07178 -4.33088,0.43389 -8.65889,0.9157 -12.93963,1.72159 -8.97427,1.39644 -18.0573,1.8505 -27.13642,1.71061 -8.10482,-0.004 -16.20983,-0.0346 -24.3131,-0.20751 0,0 -6.401196,4.65074 -6.401196,4.65074 z" />
    <path
       style="fill:#4d4d4d;stroke:#000000;stroke-width:0.310125px;stroke-linecap:butt;stroke-linejoin:miter;stroke-opacity:0"
       d="m 99.761034,284.6742 106.010776,1.28124 c 0,0 -13.48114,-105.70343 -43.50732,-83.92211 -30.02617,21.78131 -64.95457,17.29691 -64.95457,17.29691 z"
       id="path1138" />
    <path
       id="path1140"
       d="m 116.73945,284.66586 -106.009807,1.28911 c 0,0 13.481017,-106.35268 43.506912,-84.43757 30.025895,21.91509 64.953975,17.40315 64.953975,17.40315 z"
       style="fill:#4d4d4d;stroke:#000000;stroke-width:0.311075px;stroke-linecap:butt;stroke-linejoin:miter;stroke-opacity:0" />
  </g>
</svg>
